<mxfile host="app.diagrams.net" modified="2023-04-04T19:48:26.573Z" agent="Mozilla/5.0 (Windows NT 10.0; Win64; x64; rv:109.0) Gecko/20100101 Firefox/111.0" etag="AhaNt7Q-4C3SxymyP5Lr" version="21.1.4" type="device">
  <diagram name="Страница 1" id="IZV1Hm3tQNgpVBTpKS9V">
    <mxGraphModel dx="3430" dy="1076" grid="0" gridSize="10" guides="1" tooltips="1" connect="1" arrows="1" fold="1" page="1" pageScale="1" pageWidth="850" pageHeight="1100" math="0" shadow="0">
      <root>
        <mxCell id="0" />
        <mxCell id="1" parent="0" />
        <mxCell id="Ub1_vusqEFFK5saVrgV2-54" value="" style="rounded=0;whiteSpace=wrap;html=1;dashed=1;" vertex="1" parent="1">
          <mxGeometry x="-166" y="936" width="1350" height="970" as="geometry" />
        </mxCell>
        <mxCell id="Ub1_vusqEFFK5saVrgV2-55" style="rounded=0;orthogonalLoop=1;jettySize=auto;html=1;exitX=1;exitY=0.5;exitDx=0;exitDy=0;entryX=0;entryY=0.5;entryDx=0;entryDy=0;endArrow=none;endFill=0;" edge="1" parent="1" source="Ub1_vusqEFFK5saVrgV2-57" target="Ub1_vusqEFFK5saVrgV2-65">
          <mxGeometry relative="1" as="geometry" />
        </mxCell>
        <mxCell id="Ub1_vusqEFFK5saVrgV2-56" style="rounded=0;orthogonalLoop=1;jettySize=auto;html=1;exitX=0;exitY=0.5;exitDx=0;exitDy=0;entryX=1;entryY=0.5;entryDx=0;entryDy=0;endArrow=none;endFill=0;" edge="1" parent="1" source="Ub1_vusqEFFK5saVrgV2-57" target="Ub1_vusqEFFK5saVrgV2-59">
          <mxGeometry relative="1" as="geometry" />
        </mxCell>
        <mxCell id="Ub1_vusqEFFK5saVrgV2-57" value="&lt;font style=&quot;font-size: 18px;&quot;&gt;Autoreport&lt;/font&gt;" style="ellipse;whiteSpace=wrap;html=1;" vertex="1" parent="1">
          <mxGeometry x="289" y="1026" width="120" height="80" as="geometry" />
        </mxCell>
        <mxCell id="Ub1_vusqEFFK5saVrgV2-58" value="&lt;div&gt;&lt;font style=&quot;font-size: 18px;&quot;&gt;templates&lt;br&gt;&lt;/font&gt;&lt;/div&gt;&lt;div&gt;&lt;font style=&quot;font-size: 18px;&quot;&gt;&lt;br&gt;&lt;/font&gt;&lt;/div&gt;&lt;div&gt;&lt;font style=&quot;font-size: 18px;&quot;&gt;&lt;br&gt;&lt;/font&gt;&lt;/div&gt;&lt;div&gt;&lt;font style=&quot;font-size: 18px;&quot;&gt;&lt;br&gt;&lt;/font&gt;&lt;/div&gt;&lt;div&gt;&lt;font style=&quot;font-size: 18px;&quot;&gt;&lt;br&gt;&lt;/font&gt;&lt;/div&gt;" style="ellipse;whiteSpace=wrap;html=1;" vertex="1" parent="1">
          <mxGeometry x="914" y="1006" width="240" height="190" as="geometry" />
        </mxCell>
        <mxCell id="Ub1_vusqEFFK5saVrgV2-59" value="&lt;div&gt;&lt;font style=&quot;font-size: 18px;&quot;&gt;controllers&lt;/font&gt;&lt;/div&gt;&lt;div&gt;&lt;font style=&quot;font-size: 18px;&quot;&gt;&lt;br&gt;&lt;/font&gt;&lt;/div&gt;&lt;div&gt;&lt;font style=&quot;font-size: 18px;&quot;&gt;&lt;br&gt;&lt;/font&gt;&lt;/div&gt;&lt;div&gt;&lt;font style=&quot;font-size: 18px;&quot;&gt;&lt;br&gt;&lt;/font&gt;&lt;/div&gt;&lt;div&gt;&lt;font style=&quot;font-size: 18px;&quot;&gt;&lt;br&gt;&lt;/font&gt;&lt;/div&gt;" style="ellipse;whiteSpace=wrap;html=1;" vertex="1" parent="1">
          <mxGeometry x="-156" y="946" width="230" height="130" as="geometry" />
        </mxCell>
        <mxCell id="Ub1_vusqEFFK5saVrgV2-60" value="&lt;div&gt;&lt;font style=&quot;font-size: 18px;&quot;&gt;static&lt;br&gt;&lt;/font&gt;&lt;/div&gt;&lt;div&gt;&lt;font style=&quot;font-size: 18px;&quot;&gt;&lt;br&gt;&lt;/font&gt;&lt;/div&gt;&lt;div&gt;&lt;font style=&quot;font-size: 18px;&quot;&gt;&lt;br&gt;&lt;/font&gt;&lt;/div&gt;&lt;div&gt;&lt;font style=&quot;font-size: 18px;&quot;&gt;&lt;br&gt;&lt;/font&gt;&lt;/div&gt;&lt;div&gt;&lt;font style=&quot;font-size: 18px;&quot;&gt;&lt;br&gt;&lt;/font&gt;&lt;/div&gt;&lt;div&gt;&lt;font style=&quot;font-size: 18px;&quot;&gt;&lt;br&gt;&lt;/font&gt;&lt;/div&gt;&lt;div&gt;&lt;font style=&quot;font-size: 18px;&quot;&gt;&lt;br&gt;&lt;/font&gt;&lt;/div&gt;&lt;div&gt;&lt;font style=&quot;font-size: 18px;&quot;&gt;&lt;br&gt;&lt;/font&gt;&lt;/div&gt;&lt;div&gt;&lt;font style=&quot;font-size: 18px;&quot;&gt;&lt;br&gt;&lt;/font&gt;&lt;/div&gt;&lt;div&gt;&lt;font style=&quot;font-size: 18px;&quot;&gt;&lt;br&gt;&lt;/font&gt;&lt;/div&gt;&lt;div&gt;&lt;font style=&quot;font-size: 18px;&quot;&gt;&lt;br&gt;&lt;/font&gt;&lt;/div&gt;" style="ellipse;whiteSpace=wrap;html=1;" vertex="1" parent="1">
          <mxGeometry x="724" y="1586" width="450" height="300" as="geometry" />
        </mxCell>
        <mxCell id="Ub1_vusqEFFK5saVrgV2-61" value="&lt;font style=&quot;font-size: 18px;&quot;&gt;autoreport.py&lt;/font&gt;" style="ellipse;whiteSpace=wrap;html=1;" vertex="1" parent="1">
          <mxGeometry x="-101" y="986" width="120" height="80" as="geometry" />
        </mxCell>
        <mxCell id="Ub1_vusqEFFK5saVrgV2-62" value="&lt;font style=&quot;font-size: 18px;&quot;&gt;funcs.py&lt;/font&gt;" style="ellipse;whiteSpace=wrap;html=1;" vertex="1" parent="1">
          <mxGeometry x="-116" y="1181" width="135" height="80" as="geometry" />
        </mxCell>
        <mxCell id="Ub1_vusqEFFK5saVrgV2-63" value="&lt;div&gt;&lt;font style=&quot;font-size: 18px;&quot;&gt;tests&lt;br&gt;&lt;/font&gt;&lt;/div&gt;&lt;div&gt;&lt;font style=&quot;font-size: 18px;&quot;&gt;&lt;br&gt;&lt;/font&gt;&lt;/div&gt;&lt;div&gt;&lt;font style=&quot;font-size: 18px;&quot;&gt;&lt;br&gt;&lt;/font&gt;&lt;/div&gt;&lt;div&gt;&lt;font style=&quot;font-size: 18px;&quot;&gt;&lt;br&gt;&lt;/font&gt;&lt;/div&gt;&lt;div&gt;&lt;font style=&quot;font-size: 18px;&quot;&gt;&lt;br&gt;&lt;/font&gt;&lt;/div&gt;&lt;div&gt;&lt;font style=&quot;font-size: 18px;&quot;&gt;&lt;br&gt;&lt;/font&gt;&lt;/div&gt;" style="ellipse;whiteSpace=wrap;html=1;" vertex="1" parent="1">
          <mxGeometry x="874" y="1386" width="250" height="190" as="geometry" />
        </mxCell>
        <mxCell id="Ub1_vusqEFFK5saVrgV2-64" value="&lt;div&gt;&lt;font style=&quot;font-size: 18px;&quot;&gt;docs&lt;br&gt;&lt;/font&gt;&lt;/div&gt;&lt;div&gt;&lt;font style=&quot;font-size: 18px;&quot;&gt;&lt;br&gt;&lt;/font&gt;&lt;/div&gt;&lt;div&gt;&lt;font style=&quot;font-size: 18px;&quot;&gt;&lt;br&gt;&lt;/font&gt;&lt;/div&gt;&lt;div&gt;&lt;font style=&quot;font-size: 18px;&quot;&gt;&lt;br&gt;&lt;/font&gt;&lt;/div&gt;" style="ellipse;whiteSpace=wrap;html=1;" vertex="1" parent="1">
          <mxGeometry x="929" y="1206" width="210" height="160" as="geometry" />
        </mxCell>
        <mxCell id="Ub1_vusqEFFK5saVrgV2-65" value="&lt;font style=&quot;font-size: 18px;&quot;&gt;config.py&lt;/font&gt;" style="ellipse;whiteSpace=wrap;html=1;" vertex="1" parent="1">
          <mxGeometry x="724" y="996" width="120" height="80" as="geometry" />
        </mxCell>
        <mxCell id="Ub1_vusqEFFK5saVrgV2-66" value="&lt;font style=&quot;font-size: 18px;&quot;&gt;config.txt&lt;/font&gt;" style="ellipse;whiteSpace=wrap;html=1;" vertex="1" parent="1">
          <mxGeometry x="654" y="1216" width="120" height="80" as="geometry" />
        </mxCell>
        <mxCell id="Ub1_vusqEFFK5saVrgV2-67" style="rounded=0;orthogonalLoop=1;jettySize=auto;html=1;exitX=0;exitY=0.5;exitDx=0;exitDy=0;entryX=1;entryY=0;entryDx=0;entryDy=0;endArrow=none;endFill=0;" edge="1" parent="1" source="Ub1_vusqEFFK5saVrgV2-57" target="Ub1_vusqEFFK5saVrgV2-62">
          <mxGeometry relative="1" as="geometry">
            <mxPoint x="299" y="1076" as="sourcePoint" />
            <mxPoint x="214" y="1036" as="targetPoint" />
          </mxGeometry>
        </mxCell>
        <mxCell id="Ub1_vusqEFFK5saVrgV2-68" style="rounded=0;orthogonalLoop=1;jettySize=auto;html=1;exitX=1;exitY=1;exitDx=0;exitDy=0;entryX=0;entryY=0;entryDx=0;entryDy=0;endArrow=none;endFill=0;" edge="1" parent="1" source="Ub1_vusqEFFK5saVrgV2-57" target="Ub1_vusqEFFK5saVrgV2-66">
          <mxGeometry relative="1" as="geometry">
            <mxPoint x="401" y="1104" as="sourcePoint" />
            <mxPoint x="542" y="1418" as="targetPoint" />
          </mxGeometry>
        </mxCell>
        <mxCell id="Ub1_vusqEFFK5saVrgV2-69" style="rounded=0;orthogonalLoop=1;jettySize=auto;html=1;exitX=1;exitY=1;exitDx=0;exitDy=0;entryX=0;entryY=0.5;entryDx=0;entryDy=0;endArrow=none;endFill=0;" edge="1" parent="1" source="Ub1_vusqEFFK5saVrgV2-57" target="Ub1_vusqEFFK5saVrgV2-63">
          <mxGeometry relative="1" as="geometry">
            <mxPoint x="401" y="1104" as="sourcePoint" />
            <mxPoint x="582" y="1328" as="targetPoint" />
          </mxGeometry>
        </mxCell>
        <mxCell id="Ub1_vusqEFFK5saVrgV2-70" style="rounded=0;orthogonalLoop=1;jettySize=auto;html=1;exitX=1;exitY=0.5;exitDx=0;exitDy=0;entryX=0;entryY=0.5;entryDx=0;entryDy=0;endArrow=none;endFill=0;" edge="1" parent="1" source="Ub1_vusqEFFK5saVrgV2-57" target="Ub1_vusqEFFK5saVrgV2-64">
          <mxGeometry relative="1" as="geometry">
            <mxPoint x="401" y="1104" as="sourcePoint" />
            <mxPoint x="604" y="1276" as="targetPoint" />
          </mxGeometry>
        </mxCell>
        <mxCell id="Ub1_vusqEFFK5saVrgV2-71" style="rounded=0;orthogonalLoop=1;jettySize=auto;html=1;exitX=0.5;exitY=1;exitDx=0;exitDy=0;entryX=0;entryY=0;entryDx=0;entryDy=0;endArrow=none;endFill=0;" edge="1" parent="1" source="Ub1_vusqEFFK5saVrgV2-57" target="Ub1_vusqEFFK5saVrgV2-60">
          <mxGeometry relative="1" as="geometry">
            <mxPoint x="419" y="1076" as="sourcePoint" />
            <mxPoint x="624" y="1186" as="targetPoint" />
          </mxGeometry>
        </mxCell>
        <mxCell id="Ub1_vusqEFFK5saVrgV2-72" style="rounded=0;orthogonalLoop=1;jettySize=auto;html=1;exitX=1;exitY=0.5;exitDx=0;exitDy=0;entryX=0;entryY=0.5;entryDx=0;entryDy=0;endArrow=none;endFill=0;" edge="1" parent="1" source="Ub1_vusqEFFK5saVrgV2-57" target="Ub1_vusqEFFK5saVrgV2-58">
          <mxGeometry relative="1" as="geometry">
            <mxPoint x="419" y="1076" as="sourcePoint" />
            <mxPoint x="494" y="1026" as="targetPoint" />
          </mxGeometry>
        </mxCell>
        <mxCell id="Ub1_vusqEFFK5saVrgV2-73" value="&lt;font style=&quot;font-size: 18px;&quot;&gt;Autoreport&lt;/font&gt;" style="text;html=1;strokeColor=none;fillColor=none;align=center;verticalAlign=middle;whiteSpace=wrap;rounded=0;" vertex="1" parent="1">
          <mxGeometry x="1084" y="936" width="100" height="30" as="geometry" />
        </mxCell>
        <mxCell id="Ub1_vusqEFFK5saVrgV2-74" value="&lt;font style=&quot;font-size: 18px;&quot;&gt;Пользователь&lt;/font&gt;" style="shape=umlActor;verticalLabelPosition=bottom;verticalAlign=top;html=1;outlineConnect=0;" vertex="1" parent="1">
          <mxGeometry x="-276" y="971" width="60" height="110" as="geometry" />
        </mxCell>
        <mxCell id="Ub1_vusqEFFK5saVrgV2-75" style="rounded=0;orthogonalLoop=1;jettySize=auto;html=1;entryX=0;entryY=0.5;entryDx=0;entryDy=0;startArrow=classic;startFill=1;" edge="1" parent="1" source="Ub1_vusqEFFK5saVrgV2-74" target="Ub1_vusqEFFK5saVrgV2-61">
          <mxGeometry relative="1" as="geometry">
            <mxPoint x="104" y="1116" as="sourcePoint" />
            <mxPoint x="139" y="1136" as="targetPoint" />
          </mxGeometry>
        </mxCell>
        <mxCell id="Ub1_vusqEFFK5saVrgV2-76" value="&lt;font style=&quot;font-size: 18px;&quot;&gt;autoreport.log&lt;/font&gt;" style="ellipse;whiteSpace=wrap;html=1;" vertex="1" parent="1">
          <mxGeometry x="734" y="766" width="120" height="80" as="geometry" />
        </mxCell>
        <mxCell id="Ub1_vusqEFFK5saVrgV2-77" value="&lt;font style=&quot;font-size: 18px;&quot;&gt;__init__.py&lt;/font&gt;" style="ellipse;whiteSpace=wrap;html=1;" vertex="1" parent="1">
          <mxGeometry x="516" y="760" width="120" height="80" as="geometry" />
        </mxCell>
        <mxCell id="Ub1_vusqEFFK5saVrgV2-78" value="&lt;font style=&quot;font-size: 18px;&quot;&gt;runlocalserver.py&lt;/font&gt;" style="ellipse;whiteSpace=wrap;html=1;" vertex="1" parent="1">
          <mxGeometry x="-230" y="766" width="170" height="80" as="geometry" />
        </mxCell>
        <mxCell id="Ub1_vusqEFFK5saVrgV2-79" style="rounded=0;orthogonalLoop=1;jettySize=auto;html=1;exitX=1;exitY=0;exitDx=0;exitDy=0;entryX=0;entryY=1;entryDx=0;entryDy=0;endArrow=none;endFill=0;" edge="1" parent="1" source="Ub1_vusqEFFK5saVrgV2-57" target="Ub1_vusqEFFK5saVrgV2-76">
          <mxGeometry relative="1" as="geometry">
            <mxPoint x="419" y="1076" as="sourcePoint" />
            <mxPoint x="494" y="1026" as="targetPoint" />
          </mxGeometry>
        </mxCell>
        <mxCell id="Ub1_vusqEFFK5saVrgV2-80" value="&lt;font style=&quot;font-size: 18px;&quot;&gt;локальное логирование&lt;br&gt;&lt;/font&gt;" style="edgeLabel;html=1;align=center;verticalAlign=middle;resizable=0;points=[];" vertex="1" connectable="0" parent="Ub1_vusqEFFK5saVrgV2-79">
          <mxGeometry x="0.384" y="-1" relative="1" as="geometry">
            <mxPoint x="56" y="-31" as="offset" />
          </mxGeometry>
        </mxCell>
        <mxCell id="Ub1_vusqEFFK5saVrgV2-81" style="rounded=0;orthogonalLoop=1;jettySize=auto;html=1;exitX=0.5;exitY=0;exitDx=0;exitDy=0;entryX=0.5;entryY=1;entryDx=0;entryDy=0;endArrow=none;endFill=0;" edge="1" parent="1" source="Ub1_vusqEFFK5saVrgV2-57" target="Ub1_vusqEFFK5saVrgV2-77">
          <mxGeometry relative="1" as="geometry">
            <mxPoint x="401" y="1048" as="sourcePoint" />
            <mxPoint x="437" y="944" as="targetPoint" />
          </mxGeometry>
        </mxCell>
        <mxCell id="Ub1_vusqEFFK5saVrgV2-82" value="&lt;div&gt;&lt;font style=&quot;font-size: 18px;&quot;&gt;инициализация&lt;/font&gt;&lt;/div&gt;&lt;div&gt;&lt;font style=&quot;font-size: 18px;&quot;&gt;и настройка&lt;/font&gt;&lt;/div&gt;" style="edgeLabel;html=1;align=center;verticalAlign=middle;resizable=0;points=[];" vertex="1" connectable="0" parent="Ub1_vusqEFFK5saVrgV2-81">
          <mxGeometry x="0.3079" y="1" relative="1" as="geometry">
            <mxPoint as="offset" />
          </mxGeometry>
        </mxCell>
        <mxCell id="Ub1_vusqEFFK5saVrgV2-83" style="rounded=0;orthogonalLoop=1;jettySize=auto;html=1;exitX=0;exitY=0;exitDx=0;exitDy=0;entryX=1;entryY=1;entryDx=0;entryDy=0;endArrow=none;endFill=0;" edge="1" parent="1" source="Ub1_vusqEFFK5saVrgV2-57" target="Ub1_vusqEFFK5saVrgV2-78">
          <mxGeometry relative="1" as="geometry">
            <mxPoint x="401" y="1048" as="sourcePoint" />
            <mxPoint x="482" y="954" as="targetPoint" />
          </mxGeometry>
        </mxCell>
        <mxCell id="Ub1_vusqEFFK5saVrgV2-84" value="&lt;font style=&quot;font-size: 18px;&quot;&gt;локальный запуск&lt;br&gt;&lt;/font&gt;" style="edgeLabel;html=1;align=center;verticalAlign=middle;resizable=0;points=[];" vertex="1" connectable="0" parent="Ub1_vusqEFFK5saVrgV2-83">
          <mxGeometry x="0.7105" y="4" relative="1" as="geometry">
            <mxPoint x="1" as="offset" />
          </mxGeometry>
        </mxCell>
        <mxCell id="Ub1_vusqEFFK5saVrgV2-85" value="&lt;font style=&quot;font-size: 18px;&quot;&gt;utils.py&lt;/font&gt;" style="ellipse;whiteSpace=wrap;html=1;" vertex="1" parent="1">
          <mxGeometry y="766" width="120" height="80" as="geometry" />
        </mxCell>
        <mxCell id="Ub1_vusqEFFK5saVrgV2-86" style="rounded=0;orthogonalLoop=1;jettySize=auto;html=1;exitX=0.5;exitY=0;exitDx=0;exitDy=0;entryX=0.5;entryY=1;entryDx=0;entryDy=0;endArrow=none;endFill=0;" edge="1" parent="1" source="Ub1_vusqEFFK5saVrgV2-57" target="Ub1_vusqEFFK5saVrgV2-85">
          <mxGeometry relative="1" as="geometry">
            <mxPoint x="359" y="1036" as="sourcePoint" />
            <mxPoint x="474" y="926" as="targetPoint" />
          </mxGeometry>
        </mxCell>
        <mxCell id="Ub1_vusqEFFK5saVrgV2-87" value="&lt;font style=&quot;font-size: 18px;&quot;&gt;проверка роли&lt;br&gt;&lt;/font&gt;" style="edgeLabel;html=1;align=center;verticalAlign=middle;resizable=0;points=[];" vertex="1" connectable="0" parent="Ub1_vusqEFFK5saVrgV2-86">
          <mxGeometry x="0.4819" y="1" relative="1" as="geometry">
            <mxPoint as="offset" />
          </mxGeometry>
        </mxCell>
        <mxCell id="Ub1_vusqEFFK5saVrgV2-88" style="rounded=0;orthogonalLoop=1;jettySize=auto;html=1;exitX=0.5;exitY=1;exitDx=0;exitDy=0;entryX=0.5;entryY=0;entryDx=0;entryDy=0;startArrow=classic;startFill=1;" edge="1" parent="1" source="Ub1_vusqEFFK5saVrgV2-61" target="Ub1_vusqEFFK5saVrgV2-62">
          <mxGeometry relative="1" as="geometry">
            <mxPoint x="89" y="1326" as="sourcePoint" />
            <mxPoint x="159" y="1164" as="targetPoint" />
          </mxGeometry>
        </mxCell>
        <mxCell id="Ub1_vusqEFFK5saVrgV2-89" value="&lt;div&gt;&lt;font style=&quot;font-size: 18px;&quot;&gt;modules&lt;br&gt;&lt;/font&gt;&lt;/div&gt;&lt;div&gt;&lt;font style=&quot;font-size: 18px;&quot;&gt;&lt;br&gt;&lt;/font&gt;&lt;/div&gt;&lt;div&gt;&lt;font style=&quot;font-size: 18px;&quot;&gt;&lt;br&gt;&lt;/font&gt;&lt;/div&gt;&lt;div&gt;&lt;font style=&quot;font-size: 18px;&quot;&gt;&lt;br&gt;&lt;/font&gt;&lt;/div&gt;&lt;div&gt;&lt;font style=&quot;font-size: 18px;&quot;&gt;&lt;br&gt;&lt;/font&gt;&lt;/div&gt;&lt;div&gt;&lt;font style=&quot;font-size: 18px;&quot;&gt;&lt;br&gt;&lt;/font&gt;&lt;/div&gt;&lt;div&gt;&lt;font style=&quot;font-size: 18px;&quot;&gt;&lt;br&gt;&lt;/font&gt;&lt;/div&gt;&lt;div&gt;&lt;font style=&quot;font-size: 18px;&quot;&gt;&lt;br&gt;&lt;/font&gt;&lt;/div&gt;&lt;div&gt;&lt;font style=&quot;font-size: 18px;&quot;&gt;&lt;br&gt;&lt;/font&gt;&lt;/div&gt;&lt;div&gt;&lt;br&gt;&lt;/div&gt;&lt;div&gt;&lt;br&gt;&lt;/div&gt;&lt;div&gt;&lt;br&gt;&lt;/div&gt;&lt;div&gt;&lt;br&gt;&lt;/div&gt;&lt;div&gt;&lt;br&gt;&lt;/div&gt;&lt;div&gt;&lt;br&gt;&lt;/div&gt;&lt;div&gt;&lt;br&gt;&lt;/div&gt;&lt;div&gt;&lt;br&gt;&lt;/div&gt;&lt;div&gt;&lt;br&gt;&lt;/div&gt;" style="ellipse;whiteSpace=wrap;html=1;" vertex="1" parent="1">
          <mxGeometry x="-35" y="1206" width="449" height="346" as="geometry" />
        </mxCell>
        <mxCell id="Ub1_vusqEFFK5saVrgV2-90" value="&lt;font style=&quot;font-size: 18px;&quot;&gt;curriculum_getter.py&lt;/font&gt;" style="ellipse;whiteSpace=wrap;html=1;" vertex="1" parent="1">
          <mxGeometry x="99.5" y="1320" width="180" height="70" as="geometry" />
        </mxCell>
        <mxCell id="Ub1_vusqEFFK5saVrgV2-91" value="&lt;font style=&quot;font-size: 18px;&quot;&gt;curriculum_parser.py&lt;/font&gt;" style="ellipse;whiteSpace=wrap;html=1;" vertex="1" parent="1">
          <mxGeometry x="99.5" y="1396" width="180" height="70" as="geometry" />
        </mxCell>
        <mxCell id="Ub1_vusqEFFK5saVrgV2-92" value="&lt;font style=&quot;font-size: 18px;&quot;&gt;report_generator.py&lt;/font&gt;" style="ellipse;whiteSpace=wrap;html=1;" vertex="1" parent="1">
          <mxGeometry x="104.5" y="1245" width="170" height="70" as="geometry" />
        </mxCell>
        <mxCell id="Ub1_vusqEFFK5saVrgV2-93" style="rounded=0;orthogonalLoop=1;jettySize=auto;html=1;exitX=0.5;exitY=1;exitDx=0;exitDy=0;entryX=0.5;entryY=0;entryDx=0;entryDy=0;endArrow=none;endFill=0;" edge="1" parent="1" source="Ub1_vusqEFFK5saVrgV2-57" target="Ub1_vusqEFFK5saVrgV2-89">
          <mxGeometry relative="1" as="geometry">
            <mxPoint x="299" y="1076" as="sourcePoint" />
            <mxPoint x="9" y="1203" as="targetPoint" />
          </mxGeometry>
        </mxCell>
        <mxCell id="Ub1_vusqEFFK5saVrgV2-94" style="rounded=0;orthogonalLoop=1;jettySize=auto;html=1;exitX=0;exitY=0.5;exitDx=0;exitDy=0;entryX=1;entryY=0.5;entryDx=0;entryDy=0;startArrow=classic;startFill=1;" edge="1" parent="1" source="Ub1_vusqEFFK5saVrgV2-92" target="Ub1_vusqEFFK5saVrgV2-62">
          <mxGeometry relative="1" as="geometry">
            <mxPoint x="-31" y="1076" as="sourcePoint" />
            <mxPoint x="-38" y="1191" as="targetPoint" />
          </mxGeometry>
        </mxCell>
        <mxCell id="Ub1_vusqEFFK5saVrgV2-95" style="rounded=0;orthogonalLoop=1;jettySize=auto;html=1;exitX=0;exitY=0.5;exitDx=0;exitDy=0;entryX=1;entryY=1;entryDx=0;entryDy=0;startArrow=classic;startFill=1;" edge="1" parent="1" source="Ub1_vusqEFFK5saVrgV2-90" target="Ub1_vusqEFFK5saVrgV2-62">
          <mxGeometry relative="1" as="geometry">
            <mxPoint x="139" y="1291" as="sourcePoint" />
            <mxPoint x="9" y="1259" as="targetPoint" />
          </mxGeometry>
        </mxCell>
        <mxCell id="Ub1_vusqEFFK5saVrgV2-96" style="rounded=0;orthogonalLoop=1;jettySize=auto;html=1;exitX=0;exitY=0.5;exitDx=0;exitDy=0;entryX=0.699;entryY=0.982;entryDx=0;entryDy=0;startArrow=classic;startFill=1;entryPerimeter=0;" edge="1" parent="1" source="Ub1_vusqEFFK5saVrgV2-91" target="Ub1_vusqEFFK5saVrgV2-62">
          <mxGeometry relative="1" as="geometry">
            <mxPoint x="134" y="1371" as="sourcePoint" />
            <mxPoint x="9" y="1259" as="targetPoint" />
          </mxGeometry>
        </mxCell>
        <mxCell id="Ub1_vusqEFFK5saVrgV2-97" value="&lt;div&gt;&lt;font style=&quot;font-size: 18px;&quot;&gt;models&lt;/font&gt;&lt;/div&gt;&lt;div&gt;&lt;font style=&quot;font-size: 18px;&quot;&gt;&lt;br&gt;&lt;/font&gt;&lt;/div&gt;&lt;div&gt;&lt;font style=&quot;font-size: 18px;&quot;&gt;&lt;br&gt;&lt;/font&gt;&lt;/div&gt;&lt;div&gt;&lt;font style=&quot;font-size: 18px;&quot;&gt;&lt;br&gt;&lt;/font&gt;&lt;/div&gt;&lt;div&gt;&lt;font style=&quot;font-size: 18px;&quot;&gt;&lt;br&gt;&lt;/font&gt;&lt;/div&gt;&lt;div&gt;&lt;font style=&quot;font-size: 18px;&quot;&gt;&lt;br&gt;&lt;/font&gt;&lt;/div&gt;&lt;div&gt;&lt;font style=&quot;font-size: 18px;&quot;&gt;&lt;br&gt;&lt;/font&gt;&lt;/div&gt;&lt;div&gt;&lt;font style=&quot;font-size: 18px;&quot;&gt;&lt;br&gt;&lt;/font&gt;&lt;/div&gt;&lt;div&gt;&lt;font style=&quot;font-size: 18px;&quot;&gt;&lt;br&gt;&lt;/font&gt;&lt;/div&gt;&lt;div&gt;&lt;br&gt;&lt;/div&gt;&lt;div&gt;&lt;br&gt;&lt;/div&gt;&lt;div&gt;&lt;br&gt;&lt;/div&gt;&lt;div&gt;&lt;br&gt;&lt;/div&gt;" style="ellipse;whiteSpace=wrap;html=1;" vertex="1" parent="1">
          <mxGeometry x="264" y="1506" width="440" height="300" as="geometry" />
        </mxCell>
        <mxCell id="Ub1_vusqEFFK5saVrgV2-98" style="rounded=0;orthogonalLoop=1;jettySize=auto;html=1;exitX=0.5;exitY=1;exitDx=0;exitDy=0;entryX=0.5;entryY=0;entryDx=0;entryDy=0;endArrow=none;endFill=0;" edge="1" parent="1" source="Ub1_vusqEFFK5saVrgV2-57" target="Ub1_vusqEFFK5saVrgV2-97">
          <mxGeometry relative="1" as="geometry">
            <mxPoint x="401" y="1104" as="sourcePoint" />
            <mxPoint x="542" y="1418" as="targetPoint" />
          </mxGeometry>
        </mxCell>
        <mxCell id="Ub1_vusqEFFK5saVrgV2-99" value="&lt;div&gt;&lt;font style=&quot;font-size: 18px;&quot;&gt;models&lt;br&gt;&lt;/font&gt;&lt;/div&gt;&lt;div&gt;&lt;font style=&quot;font-size: 18px;&quot;&gt;&lt;br&gt;&lt;/font&gt;&lt;/div&gt;&lt;div&gt;&lt;font style=&quot;font-size: 18px;&quot;&gt;&lt;br&gt;&lt;/font&gt;&lt;/div&gt;&lt;div&gt;&lt;font style=&quot;font-size: 18px;&quot;&gt;&lt;br&gt;&lt;/font&gt;&lt;/div&gt;&lt;div&gt;&lt;font style=&quot;font-size: 18px;&quot;&gt;&lt;br&gt;&lt;/font&gt;&lt;/div&gt;&lt;div&gt;&lt;font style=&quot;font-size: 18px;&quot;&gt;&lt;br&gt;&lt;/font&gt;&lt;/div&gt;" style="ellipse;whiteSpace=wrap;html=1;" vertex="1" parent="1">
          <mxGeometry x="158" y="724" width="310" height="152" as="geometry" />
        </mxCell>
        <mxCell id="Ub1_vusqEFFK5saVrgV2-100" style="rounded=0;orthogonalLoop=1;jettySize=auto;html=1;exitX=0.5;exitY=0;exitDx=0;exitDy=0;entryX=0.5;entryY=1;entryDx=0;entryDy=0;endArrow=none;endFill=0;" edge="1" parent="1" source="Ub1_vusqEFFK5saVrgV2-57" target="Ub1_vusqEFFK5saVrgV2-99">
          <mxGeometry relative="1" as="geometry">
            <mxPoint x="359" y="1036" as="sourcePoint" />
            <mxPoint x="474" y="926" as="targetPoint" />
          </mxGeometry>
        </mxCell>
        <mxCell id="Ub1_vusqEFFK5saVrgV2-101" value="&lt;div&gt;&lt;font style=&quot;font-size: 18px;&quot;&gt;пользователи&lt;/font&gt;&lt;/div&gt;&lt;div&gt;&lt;font style=&quot;font-size: 18px;&quot;&gt;и роли&lt;br&gt;&lt;/font&gt;&lt;/div&gt;" style="edgeLabel;html=1;align=center;verticalAlign=middle;resizable=0;points=[];" vertex="1" connectable="0" parent="Ub1_vusqEFFK5saVrgV2-100">
          <mxGeometry x="0.6285" y="3" relative="1" as="geometry">
            <mxPoint x="4" y="10" as="offset" />
          </mxGeometry>
        </mxCell>
        <mxCell id="Ub1_vusqEFFK5saVrgV2-102" value="&lt;font style=&quot;font-size: 18px;&quot;&gt;role.py&lt;/font&gt;" style="ellipse;whiteSpace=wrap;html=1;" vertex="1" parent="1">
          <mxGeometry x="323" y="766" width="120" height="80" as="geometry" />
        </mxCell>
        <mxCell id="Ub1_vusqEFFK5saVrgV2-103" value="&lt;font style=&quot;font-size: 18px;&quot;&gt;user.py&lt;/font&gt;" style="ellipse;whiteSpace=wrap;html=1;" vertex="1" parent="1">
          <mxGeometry x="183" y="766" width="120" height="80" as="geometry" />
        </mxCell>
        <mxCell id="Ub1_vusqEFFK5saVrgV2-104" value="&lt;font style=&quot;font-size: 18px;&quot;&gt;reports.py&lt;/font&gt;" style="ellipse;whiteSpace=wrap;html=1;" vertex="1" parent="1">
          <mxGeometry x="394" y="1636" width="180" height="70" as="geometry" />
        </mxCell>
        <mxCell id="Ub1_vusqEFFK5saVrgV2-105" value="&lt;font style=&quot;font-size: 18px;&quot;&gt;subjects.py&lt;/font&gt;" style="ellipse;whiteSpace=wrap;html=1;" vertex="1" parent="1">
          <mxGeometry x="394" y="1716" width="180" height="70" as="geometry" />
        </mxCell>
        <mxCell id="Ub1_vusqEFFK5saVrgV2-106" value="&lt;font style=&quot;font-size: 18px;&quot;&gt;directions.py&lt;/font&gt;" style="ellipse;whiteSpace=wrap;html=1;" vertex="1" parent="1">
          <mxGeometry x="399" y="1556" width="170" height="70" as="geometry" />
        </mxCell>
        <mxCell id="Ub1_vusqEFFK5saVrgV2-107" value="&lt;font style=&quot;font-size: 18px;&quot;&gt;test_app.py&lt;/font&gt;" style="ellipse;whiteSpace=wrap;html=1;" vertex="1" parent="1">
          <mxGeometry x="914" y="1466" width="170" height="70" as="geometry" />
        </mxCell>
        <mxCell id="Ub1_vusqEFFK5saVrgV2-108" value="&lt;font style=&quot;font-size: 18px;&quot;&gt;*.doc&lt;/font&gt;" style="ellipse;whiteSpace=wrap;html=1;" vertex="1" parent="1">
          <mxGeometry x="949" y="1271" width="170" height="70" as="geometry" />
        </mxCell>
        <mxCell id="Ub1_vusqEFFK5saVrgV2-109" value="&lt;font style=&quot;font-size: 18px;&quot;&gt;*.html&lt;/font&gt;" style="ellipse;whiteSpace=wrap;html=1;" vertex="1" parent="1">
          <mxGeometry x="949" y="1086" width="170" height="70" as="geometry" />
        </mxCell>
        <mxCell id="Ub1_vusqEFFK5saVrgV2-110" value="&lt;div&gt;&lt;font style=&quot;font-size: 18px;&quot;&gt;css&lt;/font&gt;&lt;/div&gt;&lt;div&gt;&lt;font style=&quot;font-size: 18px;&quot;&gt;&lt;br&gt;&lt;/font&gt;&lt;/div&gt;&lt;div&gt;&lt;font style=&quot;font-size: 18px;&quot;&gt;&lt;br&gt;&lt;/font&gt;&lt;/div&gt;&lt;div&gt;&lt;font style=&quot;font-size: 18px;&quot;&gt;&lt;br&gt;&lt;/font&gt;&lt;/div&gt;&lt;div&gt;&lt;font style=&quot;font-size: 18px;&quot;&gt;&lt;br&gt;&lt;/font&gt;&lt;/div&gt;" style="ellipse;whiteSpace=wrap;html=1;" vertex="1" parent="1">
          <mxGeometry x="734" y="1676" width="210" height="160" as="geometry" />
        </mxCell>
        <mxCell id="Ub1_vusqEFFK5saVrgV2-111" value="&lt;div&gt;&lt;font style=&quot;font-size: 18px;&quot;&gt;js&lt;/font&gt;&lt;/div&gt;&lt;div&gt;&lt;font style=&quot;font-size: 18px;&quot;&gt;&lt;br&gt;&lt;/font&gt;&lt;/div&gt;&lt;div&gt;&lt;font style=&quot;font-size: 18px;&quot;&gt;&lt;br&gt;&lt;/font&gt;&lt;/div&gt;&lt;div&gt;&lt;font style=&quot;font-size: 18px;&quot;&gt;&lt;br&gt;&lt;/font&gt;&lt;/div&gt;&lt;div&gt;&lt;font style=&quot;font-size: 18px;&quot;&gt;&lt;br&gt;&lt;/font&gt;&lt;/div&gt;" style="ellipse;whiteSpace=wrap;html=1;" vertex="1" parent="1">
          <mxGeometry x="954" y="1676" width="210" height="160" as="geometry" />
        </mxCell>
        <mxCell id="Ub1_vusqEFFK5saVrgV2-112" value="&lt;font style=&quot;font-size: 18px;&quot;&gt;*.css&lt;/font&gt;" style="ellipse;whiteSpace=wrap;html=1;" vertex="1" parent="1">
          <mxGeometry x="754" y="1736" width="170" height="70" as="geometry" />
        </mxCell>
        <mxCell id="Ub1_vusqEFFK5saVrgV2-113" value="&lt;font style=&quot;font-size: 18px;&quot;&gt;*.js&lt;/font&gt;" style="ellipse;whiteSpace=wrap;html=1;" vertex="1" parent="1">
          <mxGeometry x="974" y="1736" width="170" height="70" as="geometry" />
        </mxCell>
        <mxCell id="Ub1_vusqEFFK5saVrgV2-114" value="&lt;div&gt;&lt;font style=&quot;font-size: 18px;&quot;&gt;templates&lt;br&gt;&lt;/font&gt;&lt;/div&gt;&lt;div&gt;&lt;font style=&quot;font-size: 18px;&quot;&gt;&lt;br&gt;&lt;/font&gt;&lt;/div&gt;&lt;div&gt;&lt;font style=&quot;font-size: 18px;&quot;&gt;&lt;br&gt;&lt;/font&gt;&lt;/div&gt;&lt;div&gt;&lt;font style=&quot;font-size: 18px;&quot;&gt;&lt;br&gt;&lt;/font&gt;&lt;/div&gt;&lt;div&gt;&lt;font style=&quot;font-size: 18px;&quot;&gt;&lt;br&gt;&lt;/font&gt;&lt;/div&gt;" style="ellipse;whiteSpace=wrap;html=1;" vertex="1" parent="1">
          <mxGeometry x="922" y="725" width="240" height="176" as="geometry" />
        </mxCell>
        <mxCell id="Ub1_vusqEFFK5saVrgV2-115" value="&lt;font style=&quot;font-size: 18px;&quot;&gt;exam.html&lt;/font&gt;" style="ellipse;whiteSpace=wrap;html=1;" vertex="1" parent="1">
          <mxGeometry x="957" y="791" width="170" height="70" as="geometry" />
        </mxCell>
        <mxCell id="Ub1_vusqEFFK5saVrgV2-116" style="rounded=0;orthogonalLoop=1;jettySize=auto;html=1;exitX=1;exitY=0;exitDx=0;exitDy=0;entryX=0;entryY=1;entryDx=0;entryDy=0;endArrow=none;endFill=0;" edge="1" parent="1" source="Ub1_vusqEFFK5saVrgV2-57" target="Ub1_vusqEFFK5saVrgV2-114">
          <mxGeometry relative="1" as="geometry">
            <mxPoint x="419" y="1076" as="sourcePoint" />
            <mxPoint x="734" y="1046" as="targetPoint" />
          </mxGeometry>
        </mxCell>
        <mxCell id="Ub1_vusqEFFK5saVrgV2-117" value="&lt;div&gt;&lt;font style=&quot;font-size: 18px;&quot;&gt;Страница, на которой будет ссылка&lt;/font&gt;&lt;/div&gt;&lt;div&gt;&lt;font style=&quot;font-size: 18px;&quot;&gt;на систему Autoreport&lt;br&gt;&lt;/font&gt;&lt;/div&gt;" style="edgeLabel;html=1;align=center;verticalAlign=middle;resizable=0;points=[];" vertex="1" connectable="0" parent="Ub1_vusqEFFK5saVrgV2-116">
          <mxGeometry x="0.4396" y="1" relative="1" as="geometry">
            <mxPoint as="offset" />
          </mxGeometry>
        </mxCell>
        <mxCell id="Ub1_vusqEFFK5saVrgV2-118" value="&lt;font style=&quot;font-size: 18px;&quot;&gt;report_state.py&lt;/font&gt;" style="ellipse;whiteSpace=wrap;html=1;" vertex="1" parent="1">
          <mxGeometry x="99.5" y="1472" width="180" height="70" as="geometry" />
        </mxCell>
        <mxCell id="Ub1_vusqEFFK5saVrgV2-119" style="rounded=0;orthogonalLoop=1;jettySize=auto;html=1;exitX=0;exitY=0.5;exitDx=0;exitDy=0;entryX=0.5;entryY=1;entryDx=0;entryDy=0;startArrow=classic;startFill=1;" edge="1" parent="1" source="Ub1_vusqEFFK5saVrgV2-118" target="Ub1_vusqEFFK5saVrgV2-62">
          <mxGeometry relative="1" as="geometry">
            <mxPoint x="109" y="1441" as="sourcePoint" />
            <mxPoint x="-38" y="1271" as="targetPoint" />
          </mxGeometry>
        </mxCell>
      </root>
    </mxGraphModel>
  </diagram>
</mxfile>
